<?xml version="1.0" encoding="utf-8"?>

<!-- Uploaded to: SVG Repo, www.svgrepo.com, Generator: SVG Repo Mixer Tools -->
<svg fill="#000000" height="800px" width="800px" version="1.1" id="Icons" xmlns="http://www.w3.org/2000/svg" xmlns:xlink="http://www.w3.org/1999/xlink" 
	 viewBox="0 0 32 32" xml:space="preserve">
<g>
	<path d="M15,30c-0.6,0-1-0.4-1-1v-6c0-0.6,0.4-1,1-1s1,0.4,1,1v6C16,29.6,15.6,30,15,30z"/>
</g>
<g>
	<path d="M11,28c-0.6,0-1-0.4-1-1v-6c0-0.6,0.4-1,1-1s1,0.4,1,1v6C12,27.6,11.6,28,11,28z"/>
</g>
<g>
	<path d="M19,28c-0.6,0-1-0.4-1-1v-6c0-0.6,0.4-1,1-1s1,0.4,1,1v6C20,27.6,19.6,28,19,28z"/>
</g>
<path d="M19,4c-4.4,0-8.2,2.8-9.5,7C5.9,11,3,13.9,3,17.5c0,3.1,2.1,5.6,5,6.3V21c0-1.7,1.3-3,3-3c1.4,0,2.5,0.9,2.9,2.2
	c0.3-0.1,0.7-0.2,1.1-0.2c0.4,0,0.8,0.1,1.1,0.2c0.3-1.3,1.5-2.2,2.9-2.2c1.7,0,3,1.3,3,3v2.5c4.1-1.3,7-5.1,7-9.5
	C29,8.5,24.5,4,19,4z"/>
</svg>