<?xml version="1.0" ?>
<!-- Uploaded to: SVG Repo, www.svgrepo.com, Generator: SVG Repo Mixer Tools -->
<svg fill="#000000" width="800px" height="800px" viewBox="0 0 64 64" version="1.1" xml:space="preserve" xmlns="http://www.w3.org/2000/svg" xmlns:xlink="http://www.w3.org/1999/xlink">
<g id="cloudy_sunny"/>
<g id="bright"/>
<g id="cloudy"/>
<g id="high_rainfall"/>
<g id="windy"/>
<g id="rain_with_thunder"/>
<g id="clear_night"/>
<g id="cloudy_night"/>
<g id="moon">
<g>
<path d="M32,11c-11.6,0-21,9.4-21,21s9.4,21,21,21s21-9.4,21-21S43.6,11,32,11z M32,51c-10.5,0-19-8.5-19-19s8.5-19,19-19    s19,8.5,19,19S42.5,51,32,51z"/>
<path d="M58.1,27.8c-0.9-0.7-1.9-1.6-2.1-2.3c-0.2-0.7,0.2-1.9,0.7-3.1c0.6-1.7,1.3-3.5,0.4-4.9c-0.8-1.5-2.7-1.8-4.5-2.1    c-1.2-0.2-2.5-0.4-3-1c-0.5-0.5-0.8-1.8-1-3c-0.3-1.8-0.7-3.7-2.1-4.5c-1.4-0.8-3.2-0.2-4.9,0.4c-1.2,0.4-2.4,0.9-3.1,0.7    c-0.7-0.2-1.5-1.2-2.3-2.1C35,4.5,33.7,3,32,3s-3,1.5-4.2,2.9c-0.7,0.9-1.6,1.9-2.3,2.1c-0.7,0.2-1.9-0.2-3.1-0.7    c-1.7-0.6-3.5-1.3-4.9-0.4c-1.5,0.8-1.8,2.7-2.1,4.5c-0.2,1.2-0.4,2.5-1,3c-0.5,0.5-1.8,0.7-3,1c-1.8,0.3-3.7,0.7-4.5,2.1    c-0.8,1.4-0.2,3.2,0.4,4.9c0.4,1.2,0.9,2.4,0.7,3.1c-0.2,0.7-1.2,1.5-2.1,2.3C4.5,29,3,30.3,3,32s1.5,3,2.9,4.2    c0.9,0.7,1.9,1.6,2.1,2.3c0.2,0.7-0.2,1.9-0.7,3.1c-0.6,1.7-1.3,3.5-0.4,4.9c0.8,1.5,2.7,1.8,4.5,2.1c1.2,0.2,2.5,0.4,3,1    c0.5,0.5,0.8,1.8,1,3c0.3,1.8,0.7,3.7,2.1,4.5c1.4,0.8,3.2,0.2,4.9-0.4c1.2-0.4,2.4-0.9,3.1-0.7c0.7,0.2,1.5,1.2,2.3,2.1    C29,59.5,30.3,61,32,61s3-1.5,4.2-2.9c0.7-0.9,1.6-1.9,2.3-2.1c0.7-0.2,1.9,0.2,3.1,0.7c1.7,0.6,3.5,1.3,4.9,0.4    c1.5-0.8,1.8-2.7,2.1-4.5c0.2-1.2,0.4-2.5,1-3c0.5-0.5,1.8-0.7,3-1c1.8-0.3,3.7-0.7,4.5-2.1c0.8-1.4,0.2-3.2-0.4-4.9    c-0.4-1.2-0.9-2.4-0.7-3.1c0.2-0.7,1.2-1.5,2.1-2.3C59.5,35,61,33.7,61,32S59.5,29,58.1,27.8z M56.8,34.6c-1.2,1-2.4,2-2.7,3.3    c-0.4,1.3,0.2,2.9,0.7,4.3c0.4,1.2,1,2.6,0.6,3.3c-0.4,0.7-1.9,0.9-3.2,1.1c-1.5,0.3-3.1,0.5-4.1,1.5c-1,1-1.2,2.5-1.5,4.1    c-0.2,1.3-0.5,2.8-1.1,3.2c-0.6,0.4-2-0.1-3.3-0.6c-1.5-0.5-3-1.1-4.3-0.7c-1.3,0.3-2.3,1.6-3.3,2.7c-0.9,1-1.8,2.2-2.6,2.2    s-1.8-1.2-2.6-2.2c-1-1.2-2-2.4-3.3-2.7C25.8,54,25.5,54,25.2,54c-1.1,0-2.3,0.4-3.4,0.8c-1.2,0.4-2.6,1-3.3,0.6    c-0.7-0.4-0.9-1.9-1.1-3.2c-0.3-1.5-0.5-3.1-1.5-4.1s-2.5-1.2-4.1-1.5c-1.3-0.2-2.8-0.5-3.2-1.1c-0.4-0.6,0.1-2,0.6-3.3    c0.5-1.5,1.1-3,0.7-4.3c-0.3-1.3-1.6-2.3-2.7-3.3C6.2,33.8,5,32.8,5,32s1.2-1.8,2.2-2.6c1.2-1,2.4-2,2.7-3.3    c0.4-1.3-0.2-2.9-0.7-4.3c-0.4-1.2-1-2.6-0.6-3.3c0.4-0.7,1.9-0.9,3.2-1.1c1.5-0.3,3.1-0.5,4.1-1.5c1-1,1.2-2.5,1.5-4.1    c0.2-1.3,0.5-2.8,1.1-3.2c0.6-0.4,2,0.1,3.3,0.6c1.5,0.5,3,1.1,4.3,0.7c1.3-0.3,2.3-1.6,3.3-2.7C30.2,6.2,31.2,5,32,5    s1.8,1.2,2.6,2.2c1,1.2,2,2.4,3.3,2.7c1.3,0.4,2.9-0.2,4.3-0.7c1.2-0.4,2.6-1,3.3-0.6c0.7,0.4,0.9,1.9,1.1,3.2    c0.3,1.5,0.5,3.1,1.5,4.1s2.5,1.2,4.1,1.5c1.3,0.2,2.8,0.5,3.2,1.1c0.4,0.6-0.1,2-0.6,3.3c-0.5,1.5-1.1,3-0.7,4.3    c0.3,1.3,1.6,2.3,2.7,3.3c1,0.9,2.2,1.8,2.2,2.6S57.8,33.8,56.8,34.6z"/>
</g>
</g>
<g id="sun"/>
<g id="rainy_night"/>
<g id="windy_night"/>
<g id="night_rain_thunder"/>
<g id="windy_rain"/>
<g id="temperature"/>
<g id="humidity"/>
<g id="air_pressure"/>
<g id="low_rainfall"/>
<g id="moderate_rainfall"/>
<g id="Sunset"/>
</svg>